<svg width="2056" height="634" viewBox="0 0 2056 634" fill="none" xmlns="http://www.w3.org/2000/svg">
<path d="M150.934 217.733L34.667 334L54.4003 353.733L74.0003 373.333L171.334 276L268.667 178.667L366 276L463.334 373.333L483.067 353.6L502.667 334L386.267 217.6C322.4 153.733 269.334 101.333 268.667 101.333C267.867 101.333 214.934 153.733 150.934 217.733Z" fill="white"/>
<path d="M565.333 312.667V394.667H586.667H608V362.667V330.667H631.333H654.667V312.667V294.667H631.333H608V280.667V266.667H633.333H658.667V248.667V230.667H612H565.333V312.667Z" fill="white"/>
<path d="M684.267 290.267C684.667 348.533 684.801 350.267 687.734 358.533C694.934 378.667 708.401 390.133 731.601 396.133C744.001 399.2 764.134 399.467 775.334 396.667C794.401 391.733 811.867 378.8 819.334 363.867C826.001 350.933 826.667 343.867 826.667 284.933V230.667H805.334H784.001V283.6C784.001 316.533 783.467 338.533 782.534 341.733C781.867 344.533 779.334 348.933 776.934 351.6C762.134 368.4 734.001 362.4 728.001 341.2C727.201 338.667 726.667 314 726.667 283.733V230.667C726.667 230.667 713.584 230.667 705.201 230.667C696.869 230.667 683.867 230.667 683.867 230.667L684.267 290.267Z" fill="white"/>
<path d="M861.333 312.667V394.667H908H954.667V376.667V358.667H929.333H904V344.667V330.667H928H952V312.667V294.667H928H904V280.667V266.667H929.333H954.8L954.8 248.933V230.67H907.733L861.333 230.667V312.667Z" fill="white"/>
<path d="M981.333 312.667V394.667H1002.67H1024L1024.27 345.2L1024.67 295.733L1063.33 345.2L1101.87 394.667H1123.6H1145.33L1145.07 312.933L1144.67 230.67H1124H1102.67V280C1102.67 307.067 1102.67 327.165 1102.67 329.333C1102 329.333 1083.33 307.067 1062.13 280L1023.6 230.667H1002.53H981.333V312.667Z" fill="white"/>
<path d="M1177.33 230.67C1177.33 232.17 1177.33 240 1177.33 249.6V266.667H1209.47C1235.47 266.667 1237.5 266.67 1241 266.67C1241 267.17 1224 297.067 1204.13 329.867C1184.27 362.8 1167.33 393.336 1166.53 394.67C1170.5 394.667 1166.93 394.667 1235.33 394.667H1305.33V376.667V358.667H1271.33C1252.67 358.667 1237.33 358.267 1237.33 357.867C1237.33 357.467 1254.27 329.2 1274.93 294.933C1295.47 260.667 1312.5 231.569 1312.93 230.67C1310.5 230.67 1179.5 230.67 1177.33 230.67Z" fill="white"/>
<path d="M1355.33 306.267C1339.33 348 1325.2 384.8 1323.87 388.267L1321.33 394.667H1343.87H1366.4L1371.87 380.933L1377.2 367.333L1406.67 367.33H1436.13L1437.7 370.933C1438.63 373.333 1441.33 379.733 1443.2 384.933L1446.93 394.667H1469.6C1490.67 394.667 1488 394.669 1491.33 394.67C1490.93 393.47 1477.33 355.2 1461.33 312.667C1445.33 270.133 1431.87 232.003 1431.33 230.67C1428 230.67 1428 230.667 1407.33 230.667H1384.4L1355.33 306.267ZM1416 307.467C1420.59 321.246 1424.4 331.997 1424.5 332.667C1423.66 332.667 1415.5 332.67 1406.4 332.67L1389.73 332.667L1398.4 307.6C1403.07 293.867 1407.2 282.667 1407.33 282.667C1407.6 282.667 1411.47 293.867 1416 307.467Z" fill="white"/>
<path d="M1510.67 230.67C1510.67 231.208 1510.67 268.933 1510.67 313.6V394.667H1558H1605.33V376.667V358.667H1579.33H1553.33V294.667V230.667H1532.93C1521.6 230.667 1511.76 230.667 1510.67 230.67Z" fill="white"/>
<path d="M1626.67 312.667V394.667H1648H1669.33V312.667V230.667H1648H1626.67V312.667Z" fill="white"/>
<path d="M1704 312.533V394.667H1739.73C1779.07 394.667 1786.27 393.733 1800.67 386.533C1816.93 378.533 1831.33 363.6 1839.2 346.533C1853.6 315.067 1847.47 280.8 1822.8 256C1811.87 244.933 1802.93 239.333 1789.33 234.533C1781.33 231.733 1777.87 231.467 1742.4 230.933L1704 230.67V312.533ZM1765.6 268C1780.4 270.4 1790.8 278 1797.33 291.067C1809.2 315.2 1799.6 344.533 1776.67 354.8C1772 356.933 1766.53 358 1758.4 358.4L1746.67 358.933V312.8V266.667H1752.4C1755.47 266.667 1761.47 267.2 1765.6 268Z" fill="white"/>
<path d="M1890 296.267C1876.13 332.4 1862 369.333 1858.53 378.4L1852.27 394.667L1874.8 394.67H1897.47L1902.8 380.267L1908.27 367.33H1937.73H1967.33L1972.53 380.667L1977.6 394.667H2000.27C2021.2 394.667 2018 394.666 2022.13 394.67C2021.73 393.47 2007.87 354.267 1991.47 310.667L1961.6 231.333L1938.4 230.933L1915.2 230.667L1890 296.267ZM1946.67 307.467C1951.07 320.533 1954.67 332.136 1954.67 332.67C1953.76 332.67 1946.93 332.67 1937.6 332.67H1920.53L1929.07 308C1933.87 294 1937.87 282.8 1938.13 283.067C1938.53 283.333 1942.27 294.4 1946.67 307.467Z" fill="white"/>
<path d="M248.267 276.267L229.334 295.333L288 354L346.667 412.667L327.334 432L308 451.333L249.334 392.667L190.667 334L151.734 373.067L112.667 412L132.267 431.6L152 451.333L171.334 432L190.667 412.667L249.067 471.067L307.334 529.333L366 470.667L424.667 412L347.334 334.667C304.8 292.133 269.467 257.333 268.667 257.333C267.867 257.333 258.8 265.867 248.267 276.267Z" fill="white"/>
<path d="M1542.27 441.333C1536.67 454.4 1528.93 471.733 1525.33 480L1518.67 494.67H1528C1528 494.67 1528.4 493.6 1532.27 484.267L1536.4 474.667H1552.67H1569.07L1572.93 484.267C1576.67 493.6 1577.07 494.67 1577.07 494.67L1586.53 494.67L1570.13 456.8C1561.2 435.867 1553.6 418.4 1553.2 418.133C1552.93 417.867 1548 428.267 1542.27 441.333ZM1559 452C1562.03 459.253 1564.27 465.2 1564.27 465.2C1562 465.2 1544 465.2 1541.33 465.2L1553.07 438C1553.07 438 1555.93 444.666 1559 452Z" fill="white"/>
<path d="M860.533 420.133C836.667 424.533 823.067 446.533 830 470C832.8 479.867 842.8 490.4 852.533 493.733C877.867 502.4 902.933 486.533 905.067 460.533C906.933 436 884.667 415.733 860.533 420.133ZM879.6 430.267C889.2 434.8 897.333 447.067 897.333 456.933C897.333 468.133 889.867 480.267 879.867 485.333C872.933 488.933 860.4 488.933 853.467 485.333C845.6 481.467 839.067 472.933 837.2 464.4C831.6 439.733 856.8 419.467 879.6 430.267Z" fill="white"/>
<path d="M1979.33 420C1969.33 422.267 1964 428.8 1964 438.933C1964 447.333 1967.87 451.6 1980.93 457.867C1994.93 464.667 1997.33 466.933 1997.33 474.4C1997.33 479.067 1996.53 480.933 1993.47 484.133C1985.87 491.733 1969.4 485 1967 475C1960 479 1960 479 1960 479C1961.23 481.7 1965.8 489.033 1971 492.5C1976.33 496.1 1987.33 497.067 1993.2 494.133C1999.47 490.8 2005.07 483.333 2006 476.933C2007.73 465.733 2002 458.4 1986 451.333C1972.27 445.333 1968.67 439.2 1974.67 431.6C1979.47 425.467 1989.87 425.867 1994.8 432.267C1995.66 433.391 1996.5 434.5 1996.5 434.5C1996.5 434.5 1996.5 434.5 2000.5 432C2003.5 430 2003.5 430 2003.5 430C2003.5 430 2001.81 427.661 1999.73 425.733C1993.87 420.4 1986.4 418.4 1979.33 420Z" fill="white"/>
<path d="M696 457.2V494.667H700H704V478.533C704 466.267 704 462.566 704 462C705.2 462.533 723.067 486.936 727.867 494.67C730 494.67 730.5 494.67 733.867 494.67L738.667 494.67L733 487L727 479C721 470.5 715 462 715 462C715 462 719.933 461.434 723 460C731.267 456.133 734.5 452 734.5 441.2C734.5 428 726.93 421.2 708.13 420H696V457.2ZM718.53 429.47C729.5 434.5 729 449.5 719.867 452.667C717.867 453.733 713.467 454.667 710 454.667H704V441.2V428H710C715.067 428.533 715 428.5 718.53 429.47Z" fill="white"/>
<path d="M1002.67 457.2V494.667H1006.67H1010.67V478.8V463.067L1019.2 462.4C1029.47 461.467 1036.13 457.867 1039.2 451.467C1042.27 444.8 1042 436 1038.27 430.667C1033.6 423.467 1028.4 420.933 1014.8 420H1002.67V457.2ZM1025.2 429.467C1031.87 431.867 1035.47 441.6 1032 448.133C1029.87 451.867 1023.6 454.667 1016.67 454.667H1010.67V441.333V428H1015.87C1018.67 428 1022.8 428.667 1025.2 429.467Z" fill="white"/>
<path d="M1134.67 457.333V494.667H1138.67H1142.67V457.333V420H1138.67H1134.67V457.333Z" fill="white"/>
<path d="M1244 457.333V494.667H1263.33H1282.67V491.333V488H1267.33H1252V473.333V458.667H1266.67H1281.33V454.667V450.667H1266.67H1252V439.333V428H1267.47H1282.67V424.267V420H1263.07H1244V457.333Z" fill="white"/>
<path d="M1378.67 457.067V494.667H1391.87C1400.13 494.667 1407.07 493.867 1410.67 492.667C1434.4 484.267 1442.4 452.4 1425.47 433.067C1417.87 424.533 1409.73 421.333 1392.53 420.4L1378.67 419.6V457.067ZM1405.07 429.6C1414.27 431.867 1423.2 441.2 1425.2 450.667C1426.93 458.533 1426.13 465.067 1422.67 472C1417.87 481.333 1409.73 486.133 1396 487.6L1388 488.4V458.133V428H1393.47C1396.4 428 1401.6 428.667 1405.07 429.6Z" fill="white"/>
<path d="M1678.67 457.467V494.933L1693.73 494.4C1710.4 493.867 1715.87 491.867 1723.6 483.733C1732.27 474.667 1735.87 458.667 1732 445.467C1727.33 429.067 1711.73 420.133 1687.73 420H1678.67V457.467ZM1710.53 431.867C1728.53 441.067 1730.4 470.133 1713.6 481.867C1708.67 485.2 1698.27 488 1690.53 488H1686.67V457.867V427.6L1695.87 428.4C1701.2 428.8 1707.47 430.4 1710.53 431.867Z" fill="white"/>
<path d="M1830.67 457.333V494.667H1850H1869.33V487.333C1869.33 487.333 1869.33 487.333 1854.4 487.33L1838.67 487.333V472.933V458.667H1853.33H1868V454.667V450.667H1853.33H1838.67V439.333V428H1854H1869.33V424V420H1850H1830.67V457.333Z" fill="white"/>
<path d="M564 457.203V494.67H568H572V478.803V463.07L580.533 462.403C590.8 461.47 597.467 457.87 600.533 451.47C603.6 444.803 603.333 436.003 599.6 430.67C594.933 423.47 589.733 420.936 576.133 420.003H564V457.203ZM586.533 429.47C593.2 431.87 596.8 441.603 593.333 448.137C591.2 451.87 584.933 454.67 578 454.67H572V441.337V428.003H577.2C580 428.003 584.133 428.67 586.533 429.47Z" fill="white"/>
</svg>
